<svg width="16" height="16" viewBox="0 0 16 16" fill="none" xmlns="http://www.w3.org/2000/svg">
<path fill-rule="evenodd" clip-rule="evenodd" d="M7.86462 0C11.0826 0 13.7123 2.62969 13.7123 5.84763V8.17097C14.8892 8.3833 15.7872 9.4172 15.7872 10.6536V11.1917C15.7872 12.5808 14.6538 13.7143 13.2646 13.7143L9.5155 13.7141C9.52418 13.78 9.52866 13.8472 9.52866 13.9154C9.52866 14.757 8.84685 15.4388 8.00523 15.4388C7.16362 15.4388 6.48104 14.757 6.48104 13.9154C6.48104 13.8472 6.48553 13.78 6.49422 13.7141L2.52258 13.7143C1.13347 13.7143 0 12.5808 0 11.1917V10.6536C0 9.48623 0.800537 8.49937 1.88057 8.2141L2.017 8.18213V5.84763C2.017 2.62969 4.64669 0 7.86462 0ZM7.86462 1.52381C5.48827 1.52381 3.54081 3.47127 3.54081 5.84763V9.65486H2.52258C1.97505 9.65486 1.52381 10.1061 1.52381 10.6536V11.1917C1.52381 11.7392 1.97505 12.1905 2.52258 12.1905H13.2646C13.8122 12.1905 14.2634 11.7392 14.2634 11.1917V10.6536C14.2634 10.1061 13.8122 9.65486 13.2646 9.65486H12.1884V5.84763C12.1884 3.47127 10.241 1.52381 7.86462 1.52381Z" fill="black"/>
</svg>

