<svg width="159" height="156" viewBox="0 0 159 156" fill="none" xmlns="http://www.w3.org/2000/svg">
<g filter="url(#filter0_d_1137_12252)">
<path d="M4.67578 45.8831V19.8123C72.8095 -2.71246 121.319 0.097273 152.507 1.33473V27.3213C146.893 27.94 135.665 31.4049 135.665 40.3146C135.665 49.2242 146.893 50.2142 152.507 49.5955C153.13 52.6891 154.378 63.7024 154.378 83.0067C103.479 77.0669 33.3687 89.194 4.67578 96V68.1573C10.2896 69.3947 21.5173 69.271 21.5173 58.8764C21.5173 48.4818 10.2896 45.8831 4.67578 45.8831Z" fill="#D93730"/>
</g>
<path d="M44.4727 20.8198L50.531 20.3541C53.3414 20.138 55.402 20.3869 56.7127 21.1007C58.0327 21.8137 58.7615 23.0443 58.899 24.7923C58.9916 25.97 58.7616 26.9734 58.2089 27.8027C57.6562 28.6319 56.8108 29.1921 55.6728 29.4832L55.6836 29.6212C57.1377 29.7779 58.231 30.226 58.9632 30.9658C59.7041 31.6956 60.1273 32.7321 60.233 34.0753C60.3756 35.8878 59.8452 37.3586 58.642 38.4878C57.4474 39.607 55.7101 40.2543 53.4301 40.4296L46.0596 40.9962L44.4727 20.8198ZM48.4645 28.8989L51.6752 28.652C53.0711 28.5447 54.0731 28.2502 54.6812 27.7684C55.2886 27.2774 55.5511 26.5075 55.4686 25.4587C55.394 24.511 54.9911 23.8524 54.2599 23.4829C53.5379 23.1126 52.4232 22.9854 50.9156 23.1013L48.026 23.3235L48.4645 28.8989ZM48.6751 31.5762L49.1777 37.9658L52.7233 37.6932C54.1193 37.5859 55.1502 37.2429 55.8162 36.6641C56.4909 36.0754 56.7833 35.2106 56.6936 34.0698C56.6111 33.0209 56.187 32.2714 55.4213 31.8212C54.6556 31.371 53.5329 31.2027 52.0533 31.3165L48.6751 31.5762Z" fill="white"/>
<path d="M74.9 38.7791L74.2819 36.8134L74.1144 36.8263C73.7141 37.5698 73.1065 38.1765 72.2915 38.6464C71.4857 39.1156 70.5431 39.3917 69.4636 39.4747C67.5931 39.6185 66.161 39.2658 65.1673 38.4166C64.1736 37.5674 63.6033 36.2089 63.4564 34.3412L62.6716 24.3635L65.98 24.1091L66.7203 33.5211C66.8122 34.6895 67.1232 35.5496 67.6535 36.1012C68.183 36.6436 68.9642 36.8751 69.9972 36.7957C71.3745 36.6898 72.3524 36.2074 72.9308 35.3484C73.5179 34.4795 73.7361 33.0882 73.5856 31.1745L72.9875 23.5704L76.2819 23.3172L77.4824 38.5806L74.9 38.7791Z" fill="white"/>
<path d="M78.0413 23.1819L81.6149 22.9072L85.4363 31.3187C86.0079 32.515 86.4155 33.65 86.6591 34.7234L86.7707 34.7149C86.8147 34.2024 86.9201 33.5788 87.087 32.844C87.2532 32.1 88.1652 28.5774 89.8229 22.2762L93.3686 22.0036L88.1259 39.8033C87.1751 43.0697 85.2991 44.8106 82.4979 45.0259C81.7721 45.0817 81.0586 45.0579 80.3577 44.9544L80.1558 42.3875C80.6577 42.46 81.2251 42.4719 81.8579 42.4233C83.4399 42.3016 84.4807 41.3099 84.9803 39.4481L85.4398 37.9688L78.0413 23.1819Z" fill="white"/>
<path d="M72.6771 64.6942L69.3827 64.9475L68.6446 55.5631C68.552 54.3855 68.2409 53.5255 67.7114 52.983C67.1912 52.4399 66.4099 52.2084 65.3677 52.2885C63.981 52.3951 62.9985 52.8779 62.4201 53.7369C61.8416 54.5959 61.6273 55.9776 61.7771 57.8821L62.3752 65.4862L59.0947 65.7384L57.8942 50.475L60.4627 50.2775L61.0808 52.2432L61.2483 52.2303C61.6564 51.4677 62.273 50.8557 63.0981 50.3943C63.9231 49.9329 64.8568 49.6621 65.8991 49.5819C69.6029 49.2972 71.6014 51.0179 71.8945 54.7441L72.6771 64.6942Z" fill="white"/>
<path d="M89.7616 55.6753C89.9577 58.1686 89.4639 60.1642 88.2804 61.662C87.0968 63.1599 85.3511 63.9976 83.0431 64.175C81.6007 64.2859 80.3004 64.0619 79.1423 63.503C77.9842 62.9441 77.06 62.085 76.3696 60.9255C75.6792 59.766 75.2714 58.3905 75.1462 56.7988C74.9516 54.3239 75.4417 52.3425 76.6167 50.8545C77.7917 49.3665 79.5471 48.5328 81.883 48.3532C84.1164 48.1815 85.9407 48.7586 87.3557 50.0845C88.77 51.4012 89.572 53.2648 89.7616 55.6753ZM78.5244 56.5391C78.8015 60.0629 80.2569 61.7235 82.8906 61.521C85.4963 61.3207 86.6606 59.4587 86.3834 55.935C86.1092 52.448 84.6599 50.8054 82.0355 51.0072C80.6582 51.1131 79.6933 51.6408 79.1407 52.5904C78.5974 53.5392 78.392 54.8555 78.5244 56.5391Z" fill="white"/>
<path d="M106.236 62.1144L103.68 55.1468C103.379 54.4109 102.803 52.6919 101.954 49.9896L101.829 49.9993C101.484 52.5249 101.195 54.3197 100.96 55.3836L99.466 62.6348L95.8366 62.9139L90.3087 47.9831L93.6589 47.7256L96.2187 55.0956C96.8116 56.9197 97.2532 58.487 97.5435 59.7976L97.6273 59.7911C97.6675 59.1124 97.7467 58.3334 97.8648 57.4543C97.9915 56.5652 98.1076 55.8991 98.2132 55.4559L99.9266 47.2438L103.528 46.9669L106.435 54.8239C106.61 55.264 106.837 55.9408 107.114 56.8543C107.402 57.767 107.584 58.4796 107.662 58.992L107.773 58.9834C107.824 57.841 108.025 56.2335 108.377 54.1609L109.782 46.4861L113.076 46.2329L109.921 61.8311L106.236 62.1144Z" fill="white"/>
<path d="M118.723 54.99L116.294 55.1767L114.463 41.1836L118.33 40.8863L118.723 54.99ZM115.747 59.6477C115.693 58.9669 115.834 58.4378 116.17 58.0602C116.504 57.6735 117.007 57.4544 117.677 57.4029C118.338 57.3521 118.859 57.4971 119.242 57.838C119.624 58.1788 119.841 58.6758 119.893 59.329C119.944 59.9823 119.804 60.516 119.471 60.9303C119.147 61.3347 118.659 61.562 118.008 61.6121C117.347 61.6629 116.816 61.5186 116.415 61.1792C116.023 60.839 115.8 60.3286 115.747 59.6477Z" fill="white"/>
<path d="M64.3542 118.5L79.5267 133.5L94.6992 118.5" stroke="#D6362E" stroke-width="4" stroke-linecap="round" stroke-linejoin="round"/>
<defs>
<filter id="filter0_d_1137_12252" x="0.675781" y="0.516113" width="157.703" height="103.484" filterUnits="userSpaceOnUse" color-interpolation-filters="sRGB">
<feFlood flood-opacity="0" result="BackgroundImageFix"/>
<feColorMatrix in="SourceAlpha" type="matrix" values="0 0 0 0 0 0 0 0 0 0 0 0 0 0 0 0 0 0 127 0" result="hardAlpha"/>
<feOffset dy="4"/>
<feGaussianBlur stdDeviation="2"/>
<feComposite in2="hardAlpha" operator="out"/>
<feColorMatrix type="matrix" values="0 0 0 0 0 0 0 0 0 0 0 0 0 0 0 0 0 0 0.25 0"/>
<feBlend mode="normal" in2="BackgroundImageFix" result="effect1_dropShadow_1137_12252"/>
<feBlend mode="normal" in="SourceGraphic" in2="effect1_dropShadow_1137_12252" result="shape"/>
</filter>
</defs>
</svg>

