<svg width="60" height="60" viewBox="0 0 60 60" fill="none" xmlns="http://www.w3.org/2000/svg">
    <path fill-rule="evenodd" clip-rule="evenodd"
        d="M11.804 30.1841L29.9538 60L48.1037 29.816C51.9654 23.9264 51.9654 16.1963 48.1037 9.93865C44.2421 3.68098 37.291 0 29.9538 0C26.4783 0 22.6167 1.10429 19.5273 2.94479C9.48695 8.46626 6.01143 20.6135 11.804 30.1841ZM16.438 27.6074C14.8933 25.0307 14.121 22.454 14.121 19.8773C14.121 17.3006 14.8933 14.7239 16.438 12.5153C19.1411 7.73006 24.1613 4.78528 29.9538 4.78528C32.657 4.78528 35.7464 5.52147 38.0634 6.99387C45.7867 11.0429 48.1037 20.2454 43.8559 27.6074L30.34 50.4295L16.438 27.6074ZM20.2998 19.8787C20.2998 25.0321 24.5477 29.4493 29.954 29.4493C35.3604 29.4493 39.9944 25.4002 39.9944 20.2468C39.9944 15.0934 35.7465 10.6763 30.3402 10.6763C24.9338 10.6763 20.2998 14.7253 20.2998 19.8787ZM25.32 20.2468C25.32 17.6701 27.2508 15.8296 29.954 15.8296C32.6572 15.8296 34.9742 17.6701 34.588 20.2468C34.588 22.8235 32.6572 24.664 29.954 24.664C27.2508 24.664 25.32 22.8235 25.32 20.2468Z"
        fill="#169a5a" />
</svg>
