<svg width="25" height="24" viewBox="0 0 25 24" fill="none" xmlns="http://www.w3.org/2000/svg">
<path fill-rule="evenodd" clip-rule="evenodd" d="M3.99414 6C3.99414 5.44772 4.44186 5 4.99414 5H20.993C21.5453 5 21.993 5.44772 21.993 6C21.993 6.55228 21.5453 7 20.993 7H4.99414C4.44186 7 3.99414 6.55228 3.99414 6ZM3.99414 12C3.99414 11.4477 4.44186 11 4.99414 11H20.993C21.5453 11 21.993 11.4477 21.993 12C21.993 12.5523 21.5453 13 20.993 13H4.99414C4.44186 13 3.99414 12.5523 3.99414 12ZM4.99414 17C4.44186 17 3.99414 17.4477 3.99414 18C3.99414 18.5523 4.44186 19 4.99414 19H20.993C21.5453 19 21.993 18.5523 21.993 18C21.993 17.4477 21.5453 17 20.993 17H4.99414Z" fill="white"/>
<mask id="mask0_3129_50720" style="mask-type:alpha" maskUnits="userSpaceOnUse" x="3" y="5" width="19" height="14">
<path fill-rule="evenodd" clip-rule="evenodd" d="M3.99414 6C3.99414 5.44772 4.44186 5 4.99414 5H20.993C21.5453 5 21.993 5.44772 21.993 6C21.993 6.55228 21.5453 7 20.993 7H4.99414C4.44186 7 3.99414 6.55228 3.99414 6ZM3.99414 12C3.99414 11.4477 4.44186 11 4.99414 11H20.993C21.5453 11 21.993 11.4477 21.993 12C21.993 12.5523 21.5453 13 20.993 13H4.99414C4.44186 13 3.99414 12.5523 3.99414 12ZM4.99414 17C4.44186 17 3.99414 17.4477 3.99414 18C3.99414 18.5523 4.44186 19 4.99414 19H20.993C21.5453 19 21.993 18.5523 21.993 18C21.993 17.4477 21.5453 17 20.993 17H4.99414Z" fill="white"/>
</mask>
<g mask="url(#mask0_3129_50720)">
<path fill-rule="evenodd" clip-rule="evenodd" d="M0.994141 0H24.9927V24H0.994141V0Z" fill="white"/>
</g>
</svg>

